<?xml version="1.0" encoding="UTF-8"?><svg id="Layer_1" xmlns="http://www.w3.org/2000/svg" viewBox="0 0 602.19 140.4"><defs><style>.cls-1{fill:none;}.cls-2{fill:#fff;}</style></defs><g><path d="M114.7,7.9c-3.2-1.87-6.66-2.8-10.4-2.8-5.46,0-10.21,1.99-14.26,5.96-4.05,3.97-6.08,8.85-6.08,14.61s1.99,10.4,5.96,14.37c3.97,3.97,8.76,5.96,14.37,5.96s10.71-1.99,14.84-5.96c4.13-3.97,6.19-8.76,6.19-14.37,0-3.89-.98-7.36-2.92-10.4-1.95-3.04-4.52-5.49-7.71-7.36Z"/><rect x="98.7" y="55.9" width="11.3" height="82.1"/><path d="M278.3,53.5c-5.07,0-9.47,1.08-13.2,3.25-3.73,2.17-6.68,4.6-8.85,7.3-1.52,1.9-2.57,3.55-3.15,4.97v-13.12h-11.2v82.1h11.2v-47.1c0-3.53,.92-7.42,2.75-11.65,1.83-4.23,4.43-7.88,7.8-10.95,3.37-3.07,7.35-4.6,11.95-4.6,3.33,0,6.18,.43,8.55,1.3,2.37,.87,3.98,1.73,4.85,2.6l5-9.7c-1.07-1-2.98-1.98-5.75-2.95-2.77-.97-6.08-1.45-9.95-1.45Z"/><path d="M359.54,58.6c-5.7-3.4-12.42-5.1-20.15-5.1-8.54,0-15.82,1.87-21.85,5.6-6.03,3.73-10.65,8.8-13.85,15.2-3.2,6.4-4.8,13.6-4.8,21.6,0,8.4,1.62,15.97,4.85,22.7,3.23,6.73,7.93,12.05,14.1,15.95,6.17,3.9,13.62,5.85,22.35,5.85,6,0,11.18-.7,15.55-2.1,4.37-1.4,8.17-3.45,11.4-6.15,3.23-2.7,6.08-5.95,8.55-9.75l-7.1-7c-.93,1.93-2.52,4.12-4.75,6.55-2.23,2.43-5.23,4.57-9,6.4-3.77,1.83-8.45,2.75-14.05,2.75-6.87,0-12.57-1.53-17.1-4.6-4.53-3.07-7.92-7.1-10.15-12.1-2.23-5-3.38-10.37-3.45-16.1h67.3c.07-.53,.12-1.27,.15-2.2,.03-.93,.05-1.7,.05-2.3,0-8-1.58-15.02-4.75-21.05-3.17-6.03-7.6-10.75-13.3-14.15Zm-48.95,30.2c.4-3.8,1.53-7.7,3.4-11.7,1.87-4,4.85-7.38,8.95-10.15,4.1-2.77,9.62-4.15,16.55-4.15s11.92,1.42,15.75,4.25c3.83,2.83,6.6,6.27,8.3,10.3,1.7,4.03,2.58,7.85,2.65,11.45h-55.6Z"/><path d="M436.79,128.6c-1.47,1-3.63,1.5-6.5,1.5s-5.5-1.17-7.5-3.5c-2-2.33-3-6.23-3-11.7v-48.7h22.4v-10.3h-22.4V22.2h-11.3V55.9h-17.1v10.3h17.1v51.7c0,7.87,1.92,13.58,5.75,17.15,3.83,3.57,8.52,5.35,14.05,5.35,3.2,0,5.93-.35,8.2-1.05,2.27-.7,4.1-1.46,5.5-2.3,1.4-.83,2.3-1.42,2.7-1.75l-5.3-8.7c-.27,.33-1.13,1-2.6,2Z"/><path d="M499.1,128.6c-1.47,1-3.63,1.5-6.5,1.5s-5.5-1.17-7.5-3.5c-2-2.33-3-6.23-3-11.7v-48.7h22.4v-10.3h-22.4V22.2h-11.3V55.9h-17.1v10.3h17.1v51.7c0,7.87,1.92,13.58,5.75,17.15,3.83,3.57,8.52,5.35,14.05,5.35,3.2,0,5.93-.35,8.2-1.05,2.27-.7,4.1-1.46,5.5-2.3,1.4-.83,2.3-1.42,2.7-1.75l-5.3-8.7c-.27,.33-1.13,1-2.6,2Z"/><path d="M596.79,75.15c-3.6-6.63-8.55-11.9-14.85-15.8s-13.55-5.85-21.75-5.85-15.48,1.95-21.85,5.85c-6.37,3.9-11.37,9.17-15,15.8-3.63,6.63-5.45,13.98-5.45,22.05s1.82,15.37,5.45,21.9c3.63,6.53,8.63,11.72,15,15.55,6.37,3.83,13.65,5.75,21.85,5.75s15.45-1.92,21.75-5.75c6.3-3.83,11.25-9.02,14.85-15.55,3.6-6.53,5.4-13.83,5.4-21.9s-1.8-15.42-5.4-22.05Zm-51.4,35.85c-10.74-10.74-12.96-25.94-4.95-33.94s23.2-5.79,33.94,4.95c10.74,10.74,12.96,25.94,4.95,33.94s-23.2,5.79-33.94-4.95Z"/><path d="M203.95,58.7c-5.97-3.47-12.68-5.2-20.15-5.2-6.4,0-12.03,1.17-16.9,3.5-4.87,2.33-8.7,5.02-11.5,8.05-2.8,3.03-4.37,5.65-4.7,7.85V.4h-11.6V79.17c.1,7.04,1.29,21.62,10.3,36.83,3.56,6.01,7.57,10.82,11.34,14.58,10.16,8.58,19.9,9.66,21.82,9.79,.41,.01,.83,.03,1.25,.03,7.47,0,14.18-1.72,20.15-5.15,5.97-3.43,10.72-8.4,14.25-14.9,3.53-6.5,5.3-14.28,5.3-23.35s-1.77-16.85-5.3-23.35c-3.53-6.5-8.28-11.48-14.25-14.95Z"/><ellipse class="cls-2" cx="559.89" cy="96.5" rx="20.5" ry="27.5" transform="translate(95.75 424.17) rotate(-45)"/></g><g><rect class="cls-1" x="11.2" y="60" width="50.9" height="21.5"/><path d="M11.2,49v-5.06h29.14l.05-10.94H11.2V0H0V92H62.1v4.92h-29.66l-.05,10.94h29.71v30.12h11.2V49H11.2Zm0,32.5v-21.5H62.1v21.5H11.2Z"/></g></svg>